<svg width="30" height="30" viewBox="0 0 30 30" fill="none" xmlns="http://www.w3.org/2000/svg">
<rect width="30" height="30" rx="7" fill="#007AFF"/>
<path d="M19.3496 15.3057L19.582 15.0483C19.9888 14.625 20.0137 14.127 19.5737 13.6953L19.3247 13.4546C20.5947 12.3174 22.0059 12.1597 22.8774 11.2715C24.1143 10.0264 23.7158 8.2832 22.8442 7.41162C21.981 6.53174 20.2544 6.1582 18.9844 7.37842C18.0879 8.2417 17.9385 9.66113 16.8013 10.9312L16.5605 10.6821C16.1372 10.2505 15.6309 10.2671 15.2075 10.6738L14.9585 10.9062C14.4438 11.396 14.5435 11.8276 14.9751 12.2676L15.332 12.6162L9.05664 18.8916C6.4917 21.4565 7.72852 21.0581 6.33398 23.0254L7.08105 23.814C8.98193 22.4277 8.72461 23.7891 11.3311 21.1909L17.6313 14.9238L17.9883 15.2808C18.4282 15.7207 18.8682 15.812 19.3496 15.3057ZM15.2158 15.0732C14.9087 14.7412 14.9751 14.4424 15.3071 14.1021L16.0459 13.3384L16.9424 14.2349L16.1787 14.9985C15.8799 15.2891 15.5063 15.3804 15.2158 15.0732Z" fill="white"/>
</svg>
