<svg width="30" height="30" viewBox="0 0 30 30" fill="none" xmlns="http://www.w3.org/2000/svg">
<rect width="30" height="30" rx="7" fill="#007AFF"/>
<path d="M6.18457 21.1328C6.62451 21.1328 6.84033 20.9668 6.99805 20.502L8.06885 17.5718H12.9663L14.0371 20.502C14.1948 20.9668 14.4106 21.1328 14.8423 21.1328C15.2822 21.1328 15.5645 20.8672 15.5645 20.4521C15.5645 20.311 15.5396 20.1782 15.4731 20.0039L11.5801 9.63623C11.3892 9.12988 11.0488 8.87256 10.5176 8.87256C10.0029 8.87256 9.6543 9.12158 9.47168 9.62793L5.57861 20.0122C5.51221 20.1865 5.4873 20.3193 5.4873 20.4604C5.4873 20.8755 5.75293 21.1328 6.18457 21.1328ZM8.47559 16.3101L10.4927 10.7236H10.5342L12.5513 16.3101H8.47559ZM20.1382 21.1909C21.4165 21.1909 22.6118 20.4937 23.1265 19.4146H23.1597V20.5103C23.1597 20.9253 23.4419 21.1992 23.832 21.1992C24.2305 21.1992 24.5127 20.9253 24.5127 20.4771V14.9404C24.5127 13.1309 23.1846 11.9604 21.0762 11.9604C19.5156 11.9604 18.2124 12.6494 17.7393 13.7202C17.6479 13.9277 17.5815 14.127 17.5815 14.3013C17.5815 14.6665 17.8555 14.9072 18.2124 14.9072C18.4697 14.9072 18.6689 14.8076 18.7935 14.5752C19.2583 13.6123 19.9639 13.1641 21.043 13.1641C22.3379 13.1641 23.1099 13.8862 23.1099 15.0483V15.7622L20.4287 15.9116C18.3286 16.0278 17.1582 16.999 17.1582 18.543C17.1582 20.1284 18.3784 21.1909 20.1382 21.1909ZM20.4785 20.0371C19.3579 20.0371 18.5942 19.4229 18.5942 18.5098C18.5942 17.6299 19.2998 17.0405 20.603 16.9575L23.1099 16.7998V17.6797C23.1099 18.9995 21.9395 20.0371 20.4785 20.0371Z" fill="white"/>
</svg>
