<svg width="30" height="30" viewBox="0 0 30 30" fill="none" xmlns="http://www.w3.org/2000/svg">
<rect width="30" height="30" rx="7" fill="#007AFF"/>
<path d="M7.78027 19.5723H9.27441V20.8423C9.27441 22.5605 10.1377 23.4155 11.8809 23.4155H23.2197C24.9463 23.4155 25.8262 22.5522 25.8262 20.8423V13.0146C25.8262 11.3047 24.9463 10.4414 23.2197 10.4414H21.6343V9.17139C21.6343 7.46143 20.7544 6.59814 19.0278 6.59814H7.78027C6.03711 6.59814 5.17383 7.46143 5.17383 9.17139V16.999C5.17383 18.7173 6.03711 19.5723 7.78027 19.5723ZM7.79688 18.2358C6.9668 18.2358 6.51025 17.7959 6.51025 16.9326V9.24609C6.51025 8.38281 6.9668 7.93457 7.79688 7.93457H19.0029C19.8247 7.93457 20.2979 8.38281 20.2979 9.24609V10.4414H11.8809C10.1377 10.4414 9.27441 11.3047 9.27441 13.0146V18.2358H7.79688ZM10.6108 13.0894C10.6108 12.2261 11.0674 11.7778 11.8975 11.7778H23.1948C24.0166 11.7778 24.4897 12.2261 24.4897 13.0894V19.5557L21.3853 16.6255C21.0615 16.3267 20.6631 16.1772 20.2646 16.1772C19.8496 16.1772 19.4844 16.3101 19.144 16.6172L15.7905 19.5889L14.4541 18.3853C14.1387 18.0947 13.7983 17.9619 13.4414 17.9619C13.1177 17.9619 12.8105 18.0947 12.4868 18.3687L10.6108 20.0039V13.0894ZM15.1929 16.8081C16.1558 16.8081 16.9443 16.0029 16.9443 15.0317C16.9443 14.0771 16.1558 13.272 15.1929 13.272C14.2217 13.272 13.4331 14.0771 13.4331 15.0317C13.4331 16.0029 14.2217 16.8081 15.1929 16.8081Z" fill="white"/>
</svg>
