<svg width="30" height="30" viewBox="0 0 30 30" fill="none" xmlns="http://www.w3.org/2000/svg">
<rect width="30" height="30" rx="7" fill="#007AFF"/>
<path d="M19.833 14.9238C21.6094 14.9238 23.145 13.3301 23.145 11.2549C23.145 9.20459 21.6011 7.68555 19.833 7.68555C18.0566 7.68555 16.5044 9.23779 16.5127 11.2715C16.5127 13.3301 18.0483 14.9238 19.833 14.9238ZM10.2705 15.1147C11.8228 15.1147 13.1592 13.7202 13.1592 11.9189C13.1592 10.1343 11.8145 8.81445 10.2705 8.81445C8.73486 8.81445 7.37354 10.1675 7.38184 11.9355C7.38184 13.7202 8.72656 15.1147 10.2705 15.1147ZM5.64697 22.6104H11.9473C11.084 21.3569 12.1382 18.8335 13.9312 17.4556C13.0015 16.8413 11.8145 16.3848 10.2705 16.3848C6.52686 16.3848 4.18604 19.1489 4.18604 21.4482C4.18604 22.1953 4.59277 22.6104 5.64697 22.6104ZM14.6118 22.6104H25.0376C26.3491 22.6104 26.814 22.2368 26.814 21.5063C26.814 19.3647 24.1328 16.4097 19.8247 16.4097C15.5249 16.4097 12.8438 19.3647 12.8438 21.5063C12.8438 22.2368 13.3086 22.6104 14.6118 22.6104Z" fill="white"/>
</svg>
