<svg width="30" height="30" viewBox="0 0 30 30" fill="none" xmlns="http://www.w3.org/2000/svg">
<rect width="30" height="30" rx="7" fill="#007AFF"/>
<path d="M8.17676 18.4683H10.7085L9.95312 22.2202C9.93652 22.3032 9.91992 22.4028 9.91992 22.4858C9.91992 22.8926 10.2021 23.1167 10.6006 23.1167C10.999 23.1167 11.2896 22.9009 11.3726 22.4941L12.186 18.4683H16.1123L15.3486 22.2202C15.332 22.3032 15.3237 22.4028 15.3237 22.4858C15.3237 22.8926 15.606 23.1167 15.9961 23.1167C16.4028 23.1167 16.6851 22.9009 16.7681 22.4941L17.5815 18.4683H20.5449C20.9932 18.4683 21.3169 18.1362 21.3169 17.688C21.3169 17.3228 21.0596 17.0239 20.6943 17.0239H17.8721L18.7603 12.6411H21.6655C22.1221 12.6411 22.4375 12.3091 22.4375 11.8608C22.4375 11.4956 22.1885 11.1968 21.8149 11.1968H19.0508L19.7314 7.85156C19.7397 7.80176 19.7563 7.69385 19.7563 7.58594C19.7563 7.1792 19.4575 6.94678 19.0674 6.94678C18.5942 6.94678 18.3867 7.2041 18.312 7.59424L17.5815 11.1968H13.6553L14.3276 7.85156C14.3442 7.80176 14.3608 7.69385 14.3608 7.58594C14.3608 7.1792 14.062 6.94678 13.6636 6.94678C13.1987 6.94678 12.9829 7.2041 12.9082 7.59424L12.1777 11.1968H9.44678C8.99854 11.1968 8.6748 11.5454 8.6748 12.002C8.6748 12.3755 8.93213 12.6411 9.29736 12.6411H11.8872L10.999 17.0239H8.32617C7.86963 17.0239 7.5542 17.3726 7.5542 17.8291C7.5542 18.2026 7.80322 18.4683 8.17676 18.4683ZM12.4766 17.0239L13.3647 12.6411H17.291L16.4028 17.0239H12.4766Z" fill="white"/>
</svg>
